<svg width="19" height="20" viewBox="0 0 19 20" fill="none" xmlns="http://www.w3.org/2000/svg">
<g clip-path="url(#clip0_1369_1042)">
<path opacity="0.15" d="M4.79891 13.5714C4.79891 13.1771 4.65248 12.8404 4.35964 12.5614C4.06679 12.2824 3.71342 12.1429 3.29953 12.1429C2.88564 12.1429 2.53227 12.2824 2.23943 12.5614C1.94658 12.8404 1.80016 13.1771 1.80016 13.5714C1.80016 13.9658 1.94658 14.3025 2.23943 14.5815C2.53227 14.8605 2.88564 15 3.29953 15C3.71342 15 4.06679 14.8605 4.35964 14.5815C4.65248 14.3025 4.79891 13.9658 4.79891 13.5714ZM16.7939 13.5714C16.7939 13.1771 16.6475 12.8404 16.3546 12.5614C16.0618 12.2824 15.7084 12.1429 15.2945 12.1429C14.8806 12.1429 14.5273 12.2824 14.2344 12.5614C13.9416 12.8404 13.7952 13.1771 13.7952 13.5714C13.7952 13.9658 13.9416 14.3025 14.2344 14.5815C14.5273 14.8605 14.8806 15 15.2945 15C15.7084 15 16.0618 14.8605 16.3546 14.5815C16.6475 14.3025 16.7939 13.9658 16.7939 13.5714ZM16.2551 9.15179L15.4117 4.86607C15.3726 4.69494 15.2848 4.55543 15.1481 4.44754C15.0114 4.33966 14.8533 4.28571 14.6737 4.28571H3.92037C3.74075 4.28571 3.58262 4.33966 3.44596 4.44754C3.30929 4.55543 3.22144 4.69494 3.18239 4.86607L2.33899 9.15179C2.29995 9.375 2.35461 9.57217 2.50299 9.7433C2.65136 9.91443 2.84269 10 3.07697 10H15.5171C15.7514 10 15.9427 9.91443 16.0911 9.7433C16.2395 9.57217 16.2941 9.375 16.2551 9.15179ZM13.6077 2.32143C13.6077 2.17262 13.5531 2.04613 13.4437 1.94196C13.3344 1.8378 13.2017 1.78571 13.0455 1.78571H5.54859C5.39241 1.78571 5.25965 1.8378 5.15032 1.94196C5.04099 2.04613 4.98633 2.17262 4.98633 2.32143C4.98633 2.47024 5.04099 2.59673 5.15032 2.70089C5.25965 2.80506 5.39241 2.85714 5.54859 2.85714H13.0455C13.2017 2.85714 13.3344 2.80506 13.4437 2.70089C13.5531 2.59673 13.6077 2.47024 13.6077 2.32143ZM18.2933 10.4129V17.1429H16.7939V18.5714C16.7939 18.9658 16.6475 19.3025 16.3546 19.5815C16.0618 19.8605 15.7084 20 15.2945 20C14.8806 20 14.5273 19.8605 14.2344 19.5815C13.9416 19.3025 13.7952 18.9658 13.7952 18.5714V17.1429H4.79891V18.5714C4.79891 18.9658 4.65248 19.3025 4.35964 19.5815C4.06679 19.8605 3.71342 20 3.29953 20C2.88564 20 2.53227 19.8605 2.23943 19.5815C1.94658 19.3025 1.80016 18.9658 1.80016 18.5714V17.1429H0.300781V10.4129C0.300781 9.57961 0.398397 8.75 0.593628 7.92411L1.80016 2.85714C1.87044 2.27679 2.25114 1.76711 2.94226 1.32812C3.63338 0.889137 4.53144 0.558036 5.63645 0.334821C6.74146 0.111607 7.96165 0 9.29703 0C10.6324 0 11.8526 0.111607 12.9576 0.334821C14.0626 0.558036 14.9607 0.889137 15.6518 1.32812C16.3429 1.76711 16.7236 2.27679 16.7939 2.85714L18.0239 7.92411C18.2035 8.68304 18.2933 9.51265 18.2933 10.4129Z" fill="#1D2E5B"/>
</g>
<defs>
<clipPath id="clip0_1369_1042">
<rect width="18" height="20" fill="white" transform="translate(0.297852)"/>
</clipPath>
</defs>
</svg>
