<svg width="26" height="25" viewBox="0 0 26 25" fill="none" xmlns="http://www.w3.org/2000/svg">
<path opacity="0.15" d="M19.2432 21.875C18.3547 21.875 17.4862 21.6115 16.7474 21.1179C16.0087 20.6243 15.4329 19.9227 15.0929 19.1019C14.7529 18.2811 14.664 17.3778 14.8373 16.5064C15.0106 15.635 15.4385 14.8346 16.0667 14.2064C16.695 13.5781 17.4954 13.1503 18.3668 12.9769C19.2382 12.8036 20.1414 12.8926 20.9623 13.2326C21.7831 13.5726 22.4847 14.1484 22.9783 14.8871C23.4719 15.6258 23.7354 16.4943 23.7354 17.3828C23.7341 18.5738 23.2604 19.7157 22.4182 20.5578C21.576 21.4 20.4342 21.8737 19.2432 21.875ZM19.2432 14.4531C18.6637 14.4531 18.0973 14.6249 17.6155 14.9469C17.1337 15.2688 16.7582 15.7263 16.5365 16.2617C16.3147 16.797 16.2567 17.3861 16.3698 17.9544C16.4828 18.5227 16.7618 19.0447 17.1716 19.4544C17.5813 19.8641 18.1033 20.1432 18.6716 20.2562C19.2399 20.3692 19.829 20.3112 20.3643 20.0895C20.8996 19.8678 21.3572 19.4922 21.6791 19.0105C22.001 18.5287 22.1729 17.9623 22.1729 17.3828C22.1719 16.6061 21.863 15.8614 21.3138 15.3122C20.7645 14.763 20.0199 14.454 19.2432 14.4531Z" fill="#1D2E5B"/>
<path opacity="0.15" d="M6.35254 21.875C5.46407 21.875 4.59555 21.6115 3.85682 21.1179C3.11808 20.6243 2.5423 19.9227 2.2023 19.1019C1.8623 18.2811 1.77334 17.3778 1.94667 16.5064C2.12 15.635 2.54784 14.8346 3.17608 14.2064C3.80433 13.5781 4.60476 13.1503 5.47616 12.9769C6.34756 12.8036 7.25079 12.8926 8.07163 13.2326C8.89247 13.5726 9.59405 14.1484 10.0877 14.8871C10.5813 15.6258 10.8447 16.4943 10.8447 17.3828C10.8434 18.5738 10.3697 19.7157 9.52757 20.5578C8.6854 21.4 7.54355 21.8737 6.35254 21.875ZM6.35254 14.4531C5.7731 14.4531 5.20668 14.6249 4.72489 14.9469C4.24311 15.2688 3.8676 15.7263 3.64586 16.2617C3.42412 16.797 3.3661 17.3861 3.47915 17.9544C3.59219 18.5227 3.87122 19.0447 4.28094 19.4544C4.69066 19.8641 5.21268 20.1432 5.78099 20.2562C6.34929 20.3692 6.93835 20.3112 7.47368 20.0895C8.00901 19.8678 8.46657 19.4922 8.78849 19.0105C9.11041 18.5287 9.28223 17.9623 9.28223 17.3828C9.28132 16.6061 8.97237 15.8614 8.42314 15.3122C7.87392 14.763 7.12926 14.454 6.35254 14.4531Z" fill="#1D2E5B"/>
<path opacity="0.15" d="M15.9229 6.25005C16.1287 6.25076 16.3326 6.21067 16.5228 6.1321C16.713 6.05352 16.8857 5.93802 17.031 5.79227C17.1763 5.64651 17.2913 5.47341 17.3693 5.28295C17.4473 5.09249 17.4867 4.88847 17.4854 4.68267C17.4876 4.4779 17.4491 4.27473 17.3719 4.08504C17.2947 3.89535 17.1805 3.72295 17.036 3.57792C16.8914 3.43289 16.7193 3.31814 16.5299 3.24038C16.3404 3.16262 16.1374 3.12341 15.9326 3.12505C15.7274 3.12441 15.5241 3.16419 15.3343 3.24212C15.1445 3.32005 14.9719 3.4346 14.8263 3.57924C14.6808 3.72388 14.5652 3.89577 14.486 4.0851C14.4069 4.27442 14.3659 4.47748 14.3652 4.68267C14.3646 4.88786 14.4044 5.09116 14.4823 5.28098C14.5602 5.4708 14.6748 5.64341 14.8194 5.78895C14.9641 5.9345 15.136 6.05013 15.3253 6.12924C15.5146 6.20836 15.7177 6.24941 15.9229 6.25005Z" fill="#1D2E5B"/>
<path opacity="0.15" d="M18.2446 9.37504H16.1079C16.0729 9.37505 16.0385 9.36563 16.0083 9.34776C15.9781 9.32989 15.9533 9.30423 15.9365 9.27348L14.3867 6.43315C14.2775 6.22207 14.1202 6.03967 13.9274 5.90071C13.7346 5.76175 13.5118 5.67014 13.277 5.6333C13.0422 5.59645 12.8021 5.6154 12.576 5.68862C12.3499 5.76183 12.1442 5.88725 11.9756 6.05473L8.56445 9.49223C8.27788 9.78473 8.11521 10.1765 8.11035 10.586C8.11035 11.4356 8.72559 11.7383 9.01367 11.9092C10.4053 12.711 11.3853 13.2974 11.9229 13.6231C11.9514 13.6405 11.9751 13.6649 11.9915 13.6941C12.0079 13.7233 12.0165 13.7561 12.0166 13.7896V17.1646C12.0166 17.585 12.3398 17.9458 12.7603 17.9668C12.8658 17.9719 12.9713 17.9555 13.0703 17.9187C13.1694 17.8818 13.2599 17.8253 13.3364 17.7524C13.413 17.6796 13.474 17.5919 13.5157 17.4949C13.5574 17.3978 13.579 17.2932 13.5791 17.1875V12.9883C13.5792 12.8643 13.5497 12.742 13.4932 12.6317C13.4366 12.5213 13.3546 12.426 13.2539 12.3536L11.4473 11.0542C11.4246 11.038 11.4056 11.0171 11.3917 10.993C11.3778 10.9688 11.3692 10.942 11.3665 10.9142C11.3638 10.8864 11.3671 10.8584 11.3762 10.8321C11.3852 10.8057 11.3998 10.7815 11.4189 10.7613L13.4697 8.57426C13.4908 8.55176 13.5168 8.53455 13.5457 8.52404C13.5747 8.51352 13.6057 8.51001 13.6363 8.51377C13.6668 8.51753 13.6961 8.52846 13.7216 8.54568C13.7472 8.5629 13.7683 8.58591 13.7832 8.61284L14.8486 10.5357C14.9163 10.6576 15.0155 10.7591 15.1357 10.8298C15.2559 10.9005 15.3928 10.9377 15.5322 10.9375H18.2666C18.3724 10.9377 18.4772 10.9163 18.5745 10.8747C18.6718 10.8331 18.7597 10.7722 18.8328 10.6956C18.9058 10.619 18.9626 10.5284 18.9995 10.4292C19.0365 10.3301 19.0529 10.2244 19.0479 10.1187C19.0273 9.69829 18.665 9.37504 18.2446 9.37504Z" fill="#1D2E5B"/>
</svg>
