<svg width="23" height="24" viewBox="0 0 23 24" fill="none" xmlns="http://www.w3.org/2000/svg">
<path opacity="0.15" d="M15.7523 6C16.7564 6 17.5704 5.10457 17.5704 4C17.5704 2.89543 16.7564 2 15.7523 2C14.7481 2 13.9341 2.89543 13.9341 4C13.9341 5.10457 14.7481 6 15.7523 6Z" fill="#1D2E5B"/>
<path opacity="0.15" d="M14.6408 10.969C14.8495 11.311 15.1489 11.5742 15.4982 11.7227C15.8476 11.8712 16.23 11.8978 16.5936 11.799L19.6081 10.97L19.169 9.02997L16.1545 9.85897L14.9008 7.79197C14.633 7.35053 14.2173 7.04354 13.7445 6.93797L10.2481 6.16797C9.85697 6.08162 9.45087 6.13933 9.09251 6.33217C8.73415 6.52502 8.44349 6.84229 8.26539 7.23497L6.75812 10.551L8.38448 11.446L9.89176 8.12897L11.6799 8.52297L7.0563 17H3.02539V19H7.0563C7.69085 19 8.28812 18.628 8.61539 18.029L10.359 14.833L15.0581 15.867L16.709 21.316L18.4327 20.683L16.7827 15.235C16.6808 14.9005 16.5007 14.6014 16.2603 14.3679C16.02 14.1345 15.7279 13.9748 15.4136 13.905L12.6508 13.298L14.2618 10.344L14.6408 10.969Z" fill="#1D2E5B"/>
</svg>
