<svg width="24" height="24" viewBox="0 0 24 24" fill="none" xmlns="http://www.w3.org/2000/svg">
<path d="M16.9476 6C18 6 18.8532 5.10457 18.8532 4C18.8532 2.89543 18 2 16.9476 2C15.8952 2 15.042 2.89543 15.042 4C15.042 5.10457 15.8952 6 16.9476 6Z" fill="#1D2E5B"/>
<path d="M15.7823 10.969C16.001 11.311 16.3148 11.5742 16.6809 11.7227C17.047 11.8712 17.4478 11.8978 17.8289 11.799L20.9884 10.97L20.5282 9.02997L17.3687 9.85897L16.0548 7.79197C15.7741 7.35053 15.3384 7.04354 14.8428 6.93797L11.1784 6.16797C10.7684 6.08162 10.3428 6.13933 9.96721 6.33217C9.59162 6.52502 9.28698 6.84229 9.10032 7.23497L7.52058 10.551L9.22514 11.446L10.8049 8.12897L12.679 8.52297L7.8331 17H3.6084V19H7.8331C8.49815 19 9.12414 18.628 9.46715 18.029L11.2946 14.833L16.2196 15.867L17.9499 21.316L19.7564 20.683L18.0271 15.235C17.9204 14.9005 17.7315 14.6014 17.4796 14.3679C17.2277 14.1345 16.9216 13.9748 16.5922 13.905L13.6966 13.298L15.385 10.344L15.7823 10.969Z" fill="#1D2E5B"/>
</svg>
