<svg width="20" height="20" viewBox="0 0 20 20" fill="none" xmlns="http://www.w3.org/2000/svg">
<g clip-path="url(#clip0_37858_1462)">
<path d="M5.39016 13.5714C5.39016 13.1771 5.2367 12.8404 4.92977 12.5614C4.62285 12.2824 4.25249 12.1429 3.8187 12.1429C3.38491 12.1429 3.01456 12.2824 2.70763 12.5614C2.4007 12.8404 2.24724 13.1771 2.24724 13.5714C2.24724 13.9658 2.4007 14.3025 2.70763 14.5815C3.01456 14.8605 3.38491 15 3.8187 15C4.25249 15 4.62285 14.8605 4.92977 14.5815C5.2367 14.3025 5.39016 13.9658 5.39016 13.5714ZM17.9618 13.5714C17.9618 13.1771 17.8084 12.8404 17.5015 12.5614C17.1945 12.2824 16.8242 12.1429 16.3904 12.1429C15.9566 12.1429 15.5862 12.2824 15.2793 12.5614C14.9724 12.8404 14.8189 13.1771 14.8189 13.5714C14.8189 13.9658 14.9724 14.3025 15.2793 14.5815C15.5862 14.8605 15.9566 15 16.3904 15C16.8242 15 17.1945 14.8605 17.5015 14.5815C17.8084 14.3025 17.9618 13.9658 17.9618 13.5714ZM17.3971 9.15179L16.5132 4.86607C16.4722 4.69494 16.3802 4.55543 16.2369 4.44754C16.0937 4.33966 15.928 4.28571 15.7397 4.28571H4.46939C4.28114 4.28571 4.1154 4.33966 3.97217 4.44754C3.82893 4.55543 3.73686 4.69494 3.69593 4.86607L2.81199 9.15179C2.77106 9.375 2.82835 9.57217 2.98386 9.7433C3.13937 9.91443 3.3399 10 3.58544 10H16.6237C16.8692 10 17.0697 9.91443 17.2252 9.7433C17.3807 9.57217 17.438 9.375 17.3971 9.15179ZM14.6225 2.32143C14.6225 2.17262 14.5652 2.04613 14.4506 1.94196C14.336 1.8378 14.1969 1.78571 14.0332 1.78571H6.17589C6.0122 1.78571 5.87306 1.8378 5.75847 1.94196C5.64389 2.04613 5.5866 2.17262 5.5866 2.32143C5.5866 2.47024 5.64389 2.59673 5.75847 2.70089C5.87306 2.80506 6.0122 2.85714 6.17589 2.85714H14.0332C14.1969 2.85714 14.336 2.80506 14.4506 2.70089C14.5652 2.59673 14.6225 2.47024 14.6225 2.32143ZM19.5333 10.4129V17.1429H17.9618V18.5714C17.9618 18.9658 17.8084 19.3025 17.5015 19.5815C17.1945 19.8605 16.8242 20 16.3904 20C15.9566 20 15.5862 19.8605 15.2793 19.5815C14.9724 19.3025 14.8189 18.9658 14.8189 18.5714V17.1429H5.39016V18.5714C5.39016 18.9658 5.2367 19.3025 4.92977 19.5815C4.62285 19.8605 4.25249 20 3.8187 20C3.38491 20 3.01456 19.8605 2.70763 19.5815C2.4007 19.3025 2.24724 18.9658 2.24724 18.5714V17.1429H0.675781V10.4129C0.675781 9.57961 0.77809 8.75 0.982707 7.92411L2.24724 2.85714C2.3209 2.27679 2.71991 1.76711 3.44425 1.32812C4.1686 0.889137 5.10984 0.558036 6.26797 0.334821C7.42611 0.111607 8.70496 0 10.1045 0C11.5041 0 12.783 0.111607 13.9411 0.334821C15.0993 0.558036 16.0405 0.889137 16.7648 1.32812C17.4892 1.76711 17.8882 2.27679 17.9618 2.85714L19.2509 7.92411C19.4392 8.68304 19.5333 9.51265 19.5333 10.4129Z" fill="#1D2E5B"/>
</g>
<defs>
<clipPath id="clip0_37858_1462">
<rect width="18.8654" height="20" fill="white" transform="translate(0.672852)"/>
</clipPath>
</defs>
</svg>
